<svg xmlns="http://www.w3.org/2000/svg" id="Layer_2" data-name="Layer 2" viewBox="0 0 320 86.8"><defs><style>      .cls-1 {        fill: #00994d;      }      .cls-2 {        fill: #ee4038;      }      .cls-3 {        fill: #fbba16;      }      .cls-4 {        fill: #29256a;      }      .cls-5 {        fill: #273252;      }    </style></defs><g id="Layer_1-2" data-name="Layer 1"><g><g><g><g><path class="cls-5" d="M109.32,56.7c-2.85,0-5.27-.42-7.28-1.27-2-.85-3.53-2.12-4.6-3.81-1.06-1.69-1.6-3.84-1.6-6.44v-1.68h7.9v1.68c0,1.66.46,2.89,1.38,3.71s2.3,1.22,4.14,1.22,3.1-.59,4-1.76c.9-1.17,1.35-2.86,1.35-5.06v-24.34h8.11v24.34c0,2.99-.52,5.49-1.57,7.49-1.05,2-2.57,3.49-4.57,4.46s-4.43,1.46-7.28,1.46Z"></path><path class="cls-5" d="M137.67,56.7c-.94,0-1.94-.11-3-.32-1.06-.22-2.06-.6-3-1.16-.94-.56-1.7-1.37-2.3-2.43-.59-1.06-.89-2.42-.89-4.08,0-1.98.43-3.62,1.3-4.92s2.1-2.32,3.71-3.06c1.6-.74,3.52-1.25,5.76-1.54,2.24-.29,4.71-.43,7.41-.43v-2.11c0-.83-.14-1.55-.41-2.16-.27-.61-.74-1.1-1.41-1.46-.67-.36-1.6-.54-2.79-.54s-2.16.14-2.89.43c-.74.29-1.26.66-1.57,1.11-.31.45-.46.95-.46,1.49v.65h-7.3c-.04-.18-.05-.35-.05-.51v-.62c0-1.66.5-3.09,1.51-4.3,1.01-1.21,2.43-2.14,4.27-2.79s3.98-.97,6.44-.97c2.63,0,4.84.34,6.63,1.03,1.78.69,3.16,1.7,4.11,3.03.95,1.33,1.43,3.01,1.43,5.03v12.93c0,.65.19,1.13.57,1.43.38.31.8.46,1.27.46h1.78v4.92c-.36.18-.92.37-1.68.57-.76.2-1.68.3-2.76.3s-1.97-.15-2.79-.46c-.81-.31-1.49-.74-2.03-1.3-.54-.56-.92-1.23-1.14-2.03h-.38c-.61.76-1.36,1.42-2.24,2-.88.58-1.91,1.03-3.08,1.35-1.17.32-2.52.49-4.03.49ZM140.21,51.02c1.01,0,1.91-.15,2.7-.46.79-.31,1.46-.72,2-1.24.54-.52.96-1.16,1.27-1.92.31-.76.46-1.57.46-2.43v-1.57c-2.02,0-3.82.14-5.41.41-1.59.27-2.84.73-3.76,1.38s-1.38,1.55-1.38,2.7c0,.65.16,1.21.49,1.68.32.47.79.83,1.41,1.08.61.25,1.35.38,2.22.38Z"></path><path class="cls-5" d="M161.52,23.43v-6.49h7.52v6.49h-7.52ZM161.52,56.05v-28.45h7.52v28.45h-7.52Z"></path><path class="cls-5" d="M186.56,56.05l-13.41-37.11h8.71l8.01,23.69c.14.4.31.87.49,1.43.18.56.36,1.11.54,1.65.18.54.32,1.03.43,1.46h.32c.14-.4.3-.86.46-1.38.16-.52.32-1.05.49-1.6s.32-1.05.46-1.51l8.01-23.75h8.38l-13.47,37.11h-9.41Z"></path><path class="cls-5" d="M223.61,56.7c-3.14,0-5.77-.53-7.9-1.6-2.13-1.06-3.73-2.7-4.81-4.89-1.08-2.2-1.62-4.99-1.62-8.38s.54-6.23,1.62-8.41c1.08-2.18,2.68-3.8,4.79-4.87,2.11-1.06,4.7-1.6,7.76-1.6,2.88,0,5.32.51,7.3,1.54,1.98,1.03,3.48,2.62,4.49,4.76,1.01,2.15,1.51,4.91,1.51,8.3v1.95h-19.85c.07,1.66.33,3.07.78,4.22.45,1.15,1.15,2.01,2.11,2.57.96.56,2.23.84,3.81.84.87,0,1.65-.11,2.35-.32s1.31-.54,1.81-.97c.5-.43.9-.97,1.19-1.62.29-.65.43-1.39.43-2.22h7.36c0,1.8-.32,3.37-.97,4.71-.65,1.33-1.55,2.44-2.7,3.33-1.15.88-2.53,1.55-4.14,2-1.61.45-3.38.68-5.33.68ZM217.01,38.74h12.01c0-1.08-.14-2.02-.41-2.81-.27-.79-.64-1.44-1.11-1.95-.47-.5-1.04-.87-1.7-1.11-.67-.23-1.42-.35-2.24-.35-1.37,0-2.51.23-3.43.68-.92.45-1.62,1.14-2.11,2.06s-.82,2.08-1,3.49Z"></path><path class="cls-5" d="M255.2,56.7c-3.14,0-5.77-.53-7.9-1.6-2.13-1.06-3.73-2.7-4.81-4.89-1.08-2.2-1.62-4.99-1.62-8.38s.54-6.23,1.62-8.41c1.08-2.18,2.68-3.8,4.79-4.87,2.11-1.06,4.7-1.6,7.76-1.6,2.88,0,5.32.51,7.3,1.54,1.98,1.03,3.48,2.62,4.49,4.76,1.01,2.15,1.51,4.91,1.51,8.3v1.95h-19.85c.07,1.66.33,3.07.78,4.22.45,1.15,1.15,2.01,2.11,2.57.96.56,2.23.84,3.81.84.87,0,1.65-.11,2.35-.32s1.31-.54,1.81-.97c.5-.43.9-.97,1.19-1.62.29-.65.43-1.39.43-2.22h7.36c0,1.8-.32,3.37-.97,4.71-.65,1.33-1.55,2.44-2.7,3.33-1.15.88-2.53,1.55-4.14,2-1.61.45-3.38.68-5.33.68ZM248.6,38.74h12.01c0-1.08-.14-2.02-.41-2.81-.27-.79-.64-1.44-1.11-1.95-.47-.5-1.04-.87-1.7-1.11-.67-.23-1.42-.35-2.24-.35-1.37,0-2.51.23-3.43.68-.92.45-1.62,1.14-2.11,2.06s-.82,2.08-1,3.49Z"></path><path class="cls-5" d="M273.86,56.05v-28.45h6.22l.59,4.44h.38c.36-.94.83-1.79,1.41-2.57.58-.77,1.3-1.4,2.16-1.87.87-.47,1.87-.7,3.03-.7.61,0,1.17.06,1.68.19.5.13.88.24,1.14.35v6.82h-2.33c-1.12,0-2.1.15-2.95.46-.85.31-1.56.78-2.14,1.43-.58.65-1,1.44-1.27,2.38-.27.94-.41,2.04-.41,3.3v14.23h-7.52Z"></path><path class="cls-5" d="M303.61,56.7c-2.89,0-5.17-.79-6.87-2.38-1.7-1.59-2.54-4.15-2.54-7.68v-19.04h7.52v17.8c0,.94.11,1.72.32,2.35.22.63.53,1.15.95,1.54.41.4.93.69,1.54.87.61.18,1.3.27,2.06.27,1.12,0,2.13-.27,3.03-.81.9-.54,1.6-1.29,2.11-2.24.5-.96.76-2.03.76-3.22v-16.55h7.52v28.45h-6.17l-.54-3.89h-.38c-.69.9-1.49,1.7-2.41,2.38-.92.69-1.96,1.22-3.11,1.6-1.15.38-2.42.57-3.79.57Z"></path></g><g><path class="cls-4" d="M109.32,56.7c-2.85,0-5.27-.42-7.28-1.27-2-.85-3.53-2.12-4.6-3.81-1.06-1.69-1.6-3.84-1.6-6.44v-1.68h7.9v1.68c0,1.66.46,2.89,1.38,3.71s2.3,1.22,4.14,1.22,3.1-.59,4-1.76c.9-1.17,1.35-2.86,1.35-5.06v-24.34h8.11v24.34c0,2.99-.52,5.49-1.57,7.49-1.05,2-2.57,3.49-4.57,4.46s-4.43,1.46-7.28,1.46Z"></path><path class="cls-4" d="M137.67,56.7c-.94,0-1.94-.11-3-.32-1.06-.22-2.06-.6-3-1.16-.94-.56-1.7-1.37-2.3-2.43-.59-1.06-.89-2.42-.89-4.08,0-1.98.43-3.62,1.3-4.92s2.1-2.32,3.71-3.06c1.6-.74,3.52-1.25,5.76-1.54,2.24-.29,4.71-.43,7.41-.43v-2.11c0-.83-.14-1.55-.41-2.16-.27-.61-.74-1.1-1.41-1.46-.67-.36-1.6-.54-2.79-.54s-2.16.14-2.89.43c-.74.29-1.26.66-1.57,1.11-.31.45-.46.95-.46,1.49v.65h-7.3c-.04-.18-.05-.35-.05-.51v-.62c0-1.66.5-3.09,1.51-4.3,1.01-1.21,2.43-2.14,4.27-2.79s3.98-.97,6.44-.97c2.63,0,4.84.34,6.63,1.03,1.78.69,3.16,1.7,4.11,3.03.95,1.33,1.43,3.01,1.43,5.03v12.93c0,.65.19,1.13.57,1.43.38.31.8.46,1.27.46h1.78v4.92c-.36.18-.92.37-1.68.57-.76.2-1.68.3-2.76.3s-1.97-.15-2.79-.46c-.81-.31-1.49-.74-2.03-1.3-.54-.56-.92-1.23-1.14-2.03h-.38c-.61.76-1.36,1.42-2.24,2-.88.58-1.91,1.03-3.08,1.35-1.17.32-2.52.49-4.03.49ZM140.21,51.02c1.01,0,1.91-.15,2.7-.46.79-.31,1.46-.72,2-1.24.54-.52.96-1.16,1.27-1.92.31-.76.46-1.57.46-2.43v-1.57c-2.02,0-3.82.14-5.41.41-1.59.27-2.84.73-3.76,1.38s-1.38,1.55-1.38,2.7c0,.65.16,1.21.49,1.68.32.47.79.83,1.41,1.08.61.25,1.35.38,2.22.38Z"></path><path class="cls-4" d="M161.52,23.43v-6.49h7.52v6.49h-7.52ZM161.52,56.05v-28.45h7.52v28.45h-7.52Z"></path><path class="cls-4" d="M186.56,56.05l-13.41-37.11h8.71l8.01,23.69c.14.4.31.87.49,1.43.18.56.36,1.11.54,1.65.18.54.32,1.03.43,1.46h.32c.14-.4.3-.86.46-1.38.16-.52.32-1.05.49-1.6s.32-1.05.46-1.51l8.01-23.75h8.38l-13.47,37.11h-9.41Z"></path><path class="cls-4" d="M223.61,56.7c-3.14,0-5.77-.53-7.9-1.6-2.13-1.06-3.73-2.7-4.81-4.89-1.08-2.2-1.62-4.99-1.62-8.38s.54-6.23,1.62-8.41c1.08-2.18,2.68-3.8,4.79-4.87,2.11-1.06,4.7-1.6,7.76-1.6,2.88,0,5.32.51,7.3,1.54,1.98,1.03,3.48,2.62,4.49,4.76,1.01,2.15,1.51,4.91,1.51,8.3v1.95h-19.85c.07,1.66.33,3.07.78,4.22.45,1.15,1.15,2.01,2.11,2.57.96.56,2.23.84,3.81.84.87,0,1.65-.11,2.35-.32s1.31-.54,1.81-.97c.5-.43.9-.97,1.19-1.62.29-.65.43-1.39.43-2.22h7.36c0,1.8-.32,3.37-.97,4.71-.65,1.33-1.55,2.44-2.7,3.33-1.15.88-2.53,1.55-4.14,2-1.61.45-3.38.68-5.33.68ZM217.01,38.74h12.01c0-1.08-.14-2.02-.41-2.81-.27-.79-.64-1.44-1.11-1.95-.47-.5-1.04-.87-1.7-1.11-.67-.23-1.42-.35-2.24-.35-1.37,0-2.51.23-3.43.68-.92.45-1.62,1.14-2.11,2.06s-.82,2.08-1,3.49Z"></path><path class="cls-4" d="M255.2,56.7c-3.14,0-5.77-.53-7.9-1.6-2.13-1.06-3.73-2.7-4.81-4.89-1.08-2.2-1.62-4.99-1.62-8.38s.54-6.23,1.62-8.41c1.08-2.18,2.68-3.8,4.79-4.87,2.11-1.06,4.7-1.6,7.76-1.6,2.88,0,5.32.51,7.3,1.54,1.98,1.03,3.48,2.62,4.49,4.76,1.01,2.15,1.51,4.91,1.51,8.3v1.95h-19.85c.07,1.66.33,3.07.78,4.22.45,1.15,1.15,2.01,2.11,2.57.96.56,2.23.84,3.81.84.87,0,1.65-.11,2.35-.32s1.31-.54,1.81-.97c.5-.43.9-.97,1.19-1.62.29-.65.43-1.39.43-2.22h7.36c0,1.8-.32,3.37-.97,4.71-.65,1.33-1.55,2.44-2.7,3.33-1.15.88-2.53,1.55-4.14,2-1.61.45-3.38.68-5.33.68ZM248.6,38.74h12.01c0-1.08-.14-2.02-.41-2.81-.27-.79-.64-1.44-1.11-1.95-.47-.5-1.04-.87-1.7-1.11-.67-.23-1.42-.35-2.24-.35-1.37,0-2.51.23-3.43.68-.92.45-1.62,1.14-2.11,2.06s-.82,2.08-1,3.49Z"></path><path class="cls-4" d="M273.86,56.05v-28.45h6.22l.59,4.44h.38c.36-.94.83-1.79,1.41-2.57.58-.77,1.3-1.4,2.16-1.87.87-.47,1.87-.7,3.03-.7.61,0,1.17.06,1.68.19.5.13.88.24,1.14.35v6.82h-2.33c-1.12,0-2.1.15-2.95.46-.85.31-1.56.78-2.14,1.43-.58.65-1,1.44-1.27,2.38-.27.94-.41,2.04-.41,3.3v14.23h-7.52Z"></path><path class="cls-4" d="M303.61,56.7c-2.89,0-5.17-.79-6.87-2.38-1.7-1.59-2.54-4.15-2.54-7.68v-19.04h7.52v17.8c0,.94.11,1.72.32,2.35.22.63.53,1.15.95,1.54.41.4.93.69,1.54.87.61.18,1.3.27,2.06.27,1.12,0,2.13-.27,3.03-.81.9-.54,1.6-1.29,2.11-2.24.5-.96.76-2.03.76-3.22v-16.55h7.52v28.45h-6.17l-.54-3.89h-.38c-.69.9-1.49,1.7-2.41,2.38-.92.69-1.96,1.22-3.11,1.6-1.15.38-2.42.57-3.79.57Z"></path></g></g><g><g><path class="cls-5" d="M101.98,78.03c-1.31,0-2.43-.22-3.34-.67-.91-.45-1.61-1.12-2.07-2.01-.47-.9-.7-2.03-.7-3.4,0-2.01.53-3.53,1.6-4.55,1.07-1.02,2.57-1.53,4.52-1.53,1.1,0,2.07.17,2.91.5.85.33,1.51.83,2,1.5.49.67.73,1.51.73,2.53h-1.92c0-.65-.15-1.19-.46-1.63-.31-.43-.74-.75-1.3-.96-.56-.21-1.22-.31-1.97-.31-.86,0-1.59.15-2.21.46-.62.31-1.09.78-1.42,1.41-.33.63-.5,1.44-.5,2.41v.39c0,.96.17,1.75.5,2.37.33.62.81,1.09,1.43,1.4.62.31,1.37.46,2.24.46.77,0,1.43-.11,1.99-.32.56-.21,1-.53,1.31-.96.31-.43.47-.97.47-1.62h1.87c0,1.02-.24,1.86-.73,2.53-.49.67-1.16,1.17-2.01,1.5s-1.83.5-2.91.5Z"></path><path class="cls-5" d="M109.73,77.82v-9.02h1.46l.14,1.51h.12c.09-.27.23-.54.42-.81s.43-.48.72-.65c.29-.17.65-.26,1.09-.26.17,0,.34.01.51.03.17.02.3.06.4.1v1.61h-.74c-.41,0-.77.07-1.06.21-.3.14-.54.33-.73.58-.19.25-.33.54-.42.87-.09.33-.14.68-.14,1.05v4.77h-1.77Z"></path><path class="cls-5" d="M119.91,78.03c-.98,0-1.81-.17-2.49-.51-.68-.34-1.19-.85-1.54-1.55-.35-.7-.52-1.58-.52-2.66s.17-1.96.52-2.66.86-1.21,1.54-1.55c.68-.34,1.52-.51,2.51-.51s1.75.17,2.39.5c.65.33,1.13.83,1.45,1.49.32.66.48,1.47.48,2.42v.75h-7.06c.02.66.14,1.21.35,1.64.21.43.52.74.93.93.41.19.91.29,1.5.29.35,0,.68-.05.98-.14.3-.09.56-.22.78-.39.22-.17.4-.37.52-.6.13-.23.19-.49.21-.76h1.75c0,.47-.09.91-.28,1.31-.19.41-.47.76-.84,1.05-.37.3-.82.53-1.35.69-.53.16-1.13.24-1.81.24ZM117.2,72.47h5.21c0-.43-.07-.81-.2-1.13-.13-.32-.31-.58-.54-.77-.23-.19-.49-.34-.79-.43-.3-.09-.63-.14-.99-.14-.54,0-1,.09-1.39.27-.39.18-.69.45-.91.81-.22.37-.35.83-.39,1.39Z"></path><path class="cls-5" d="M128.83,78.03c-.38,0-.75-.04-1.11-.12-.37-.08-.7-.21-1.01-.39-.31-.18-.55-.44-.74-.77-.18-.33-.27-.74-.27-1.23,0-.66.16-1.2.49-1.61.33-.41.78-.72,1.37-.93.59-.21,1.29-.35,2.09-.42.81-.07,1.68-.1,2.61-.1v-.79c0-.38-.07-.68-.2-.92-.13-.23-.36-.42-.68-.55-.32-.13-.77-.2-1.34-.2-.53,0-.95.06-1.28.18s-.56.27-.7.45c-.14.18-.21.39-.21.62v.26h-1.71s-.02-.1-.03-.16c0-.06,0-.13,0-.2,0-.54.17-1,.5-1.38.33-.38.8-.67,1.4-.87.6-.19,1.32-.29,2.15-.29s1.55.11,2.13.32c.57.21,1,.53,1.29.95s.44.95.44,1.58v4.51c0,.22.05.38.15.48.1.1.25.15.43.15h.69v1.17c-.14.07-.32.13-.55.18-.23.05-.48.08-.75.08-.35,0-.64-.06-.85-.17-.21-.11-.38-.28-.5-.5s-.2-.46-.23-.74h-.12c-.25.3-.55.55-.9.77-.35.22-.74.38-1.17.49-.43.11-.89.16-1.38.16ZM129.26,76.59c.39,0,.76-.05,1.11-.16.35-.11.67-.26.95-.45.28-.19.51-.43.68-.72s.26-.6.26-.94v-.62c-1.01,0-1.86.05-2.57.14-.71.09-1.25.26-1.63.51-.38.25-.57.6-.57,1.05,0,.27.08.5.24.69.16.18.37.31.63.39.26.08.56.12.89.12Z"></path><path class="cls-5" d="M139.08,78.03c-.51,0-.93-.09-1.23-.27s-.53-.44-.68-.77c-.14-.33-.21-.71-.21-1.15v-5.59h-1.3v-1.44h1.35l.36-2.55h1.35v2.55h1.9v1.44h-1.9v5.37c0,.33.06.58.18.74.12.16.36.24.71.24h1.01v1.17c-.13.06-.28.1-.46.14-.18.03-.37.07-.56.09-.19.03-.36.04-.52.04Z"></path><path class="cls-5" d="M142.36,67.19v-1.77h1.77v1.77h-1.77ZM142.36,77.82v-9.02h1.77v9.02h-1.77Z"></path><path class="cls-5" d="M149.11,77.82l-3.64-9.02h1.87l1.77,4.44c.08.21.17.47.28.78.11.31.22.63.33.96.11.33.21.62.3.88h.09c.08-.24.17-.52.28-.85.11-.33.22-.65.33-.97.11-.32.2-.59.28-.81l1.75-4.44h1.82l-3.67,9.02h-1.78Z"></path><path class="cls-5" d="M160,78.03c-.98,0-1.81-.17-2.49-.51s-1.19-.85-1.54-1.55c-.35-.7-.52-1.58-.52-2.66s.17-1.96.52-2.66c.35-.7.86-1.21,1.54-1.55.68-.34,1.52-.51,2.51-.51s1.75.17,2.39.5c.65.33,1.13.83,1.45,1.49.32.66.48,1.47.48,2.42v.75h-7.06c.02.66.14,1.21.35,1.64s.52.74.93.93c.41.19.91.29,1.5.29.35,0,.68-.05.98-.14.3-.09.56-.22.78-.39.22-.17.4-.37.52-.6s.19-.49.21-.76h1.75c0,.47-.09.91-.28,1.31-.19.41-.47.76-.84,1.05-.37.3-.82.53-1.35.69s-1.13.24-1.81.24ZM157.29,72.47h5.21c0-.43-.07-.81-.2-1.13-.13-.32-.31-.58-.54-.77-.23-.19-.49-.34-.79-.43-.3-.09-.63-.14-.99-.14-.54,0-1,.09-1.39.27-.39.18-.69.45-.91.81-.22.37-.35.83-.39,1.39Z"></path><path class="cls-5" d="M170.86,77.82v-11.76h2.97l2.67,7.17c.08.21.16.44.25.71.09.27.17.53.27.79s.16.49.21.69h.14c.05-.19.11-.42.18-.68.07-.26.15-.52.23-.78.08-.26.16-.51.24-.74l2.69-7.17h2.93v11.76h-1.9v-6.86c0-.34,0-.71.02-1.1s.02-.75.03-1.07.01-.56.03-.71h-.14c-.05.15-.11.36-.2.63-.09.27-.18.55-.27.84-.1.29-.18.55-.25.78l-2.85,7.49h-1.75l-2.86-7.48c-.08-.23-.16-.48-.25-.75s-.17-.53-.25-.8c-.08-.26-.15-.5-.22-.72h-.12c.01.23.02.52.03.87,0,.35.01.7.02,1.05,0,.35,0,.67,0,.97v6.86h-1.83Z"></path><path class="cls-5" d="M189,78.03c-.38,0-.75-.04-1.11-.12s-.7-.21-1.01-.39-.55-.44-.74-.77c-.18-.33-.27-.74-.27-1.23,0-.66.16-1.2.49-1.61.33-.41.78-.72,1.37-.93.59-.21,1.29-.35,2.09-.42s1.68-.1,2.61-.1v-.79c0-.38-.07-.68-.2-.92-.13-.23-.36-.42-.68-.55-.32-.13-.77-.2-1.34-.2-.53,0-.95.06-1.28.18s-.56.27-.7.45c-.14.18-.21.39-.21.62v.26h-1.71s-.02-.1-.03-.16c0-.06,0-.13,0-.2,0-.54.17-1,.5-1.38.33-.38.8-.67,1.4-.87.6-.19,1.32-.29,2.15-.29s1.55.11,2.13.32c.57.21,1,.53,1.29.95s.44.95.44,1.58v4.51c0,.22.05.38.15.48s.25.15.43.15h.69v1.17c-.14.07-.32.13-.55.18s-.48.08-.75.08c-.35,0-.64-.06-.85-.17-.21-.11-.38-.28-.5-.5s-.2-.46-.23-.74h-.12c-.25.3-.55.55-.9.77-.35.22-.74.38-1.17.49-.43.11-.89.16-1.38.16ZM189.43,76.59c.39,0,.76-.05,1.11-.16.35-.11.67-.26.95-.45.28-.19.51-.43.68-.72s.26-.6.26-.94v-.62c-1.01,0-1.86.05-2.57.14-.71.09-1.25.26-1.63.51-.38.25-.57.6-.57,1.05,0,.27.08.5.24.69.16.18.37.31.63.39.26.08.56.12.89.12Z"></path><path class="cls-5" d="M196.7,77.82v-9.02h1.46l.14,1.51h.12c.09-.27.23-.54.42-.81s.43-.48.72-.65.65-.26,1.09-.26c.17,0,.34.01.51.03.17.02.3.06.4.1v1.61h-.74c-.41,0-.77.07-1.06.21-.3.14-.54.33-.73.58-.19.25-.33.54-.42.87-.09.33-.14.68-.14,1.05v4.77h-1.77Z"></path><path class="cls-5" d="M202.95,77.82v-12.4h1.77v7.65l4.13-4.27h2.13l-3.33,3.5,3.48,5.52h-2.06l-2.64-4.29-1.71,1.56v2.73h-1.77Z"></path><path class="cls-5" d="M216.19,78.03c-.98,0-1.81-.17-2.49-.51-.68-.34-1.19-.85-1.54-1.55-.35-.7-.52-1.58-.52-2.66s.17-1.96.52-2.66c.35-.7.86-1.21,1.54-1.55.68-.34,1.52-.51,2.51-.51s1.75.17,2.39.5c.65.33,1.13.83,1.45,1.49.32.66.48,1.47.48,2.42v.75h-7.06c.02.66.14,1.21.35,1.64.21.43.52.74.93.93.41.19.91.29,1.5.29.35,0,.68-.05.98-.14.3-.09.56-.22.78-.39.22-.17.4-.37.52-.6.13-.23.19-.49.21-.76h1.75c0,.47-.09.91-.28,1.31-.19.41-.47.76-.84,1.05s-.82.53-1.35.69c-.53.16-1.13.24-1.81.24ZM213.48,72.47h5.21c0-.43-.07-.81-.2-1.13-.13-.32-.31-.58-.54-.77-.23-.19-.49-.34-.79-.43s-.63-.14-.99-.14c-.54,0-1,.09-1.39.27s-.69.45-.91.81c-.22.37-.35.83-.39,1.39Z"></path><path class="cls-5" d="M225.02,78.03c-.51,0-.93-.09-1.23-.27s-.53-.44-.68-.77-.21-.71-.21-1.15v-5.59h-1.3v-1.44h1.35l.36-2.55h1.35v2.55h1.9v1.44h-1.9v5.37c0,.33.06.58.18.74.12.16.36.24.71.24h1.01v1.17c-.13.06-.28.1-.46.14-.18.03-.37.07-.56.09-.19.03-.36.04-.52.04Z"></path><path class="cls-5" d="M228.3,67.19v-1.77h1.77v1.77h-1.77ZM228.3,77.82v-9.02h1.77v9.02h-1.77Z"></path><path class="cls-5" d="M232.45,77.82v-9.02h1.46l.14,1.39h.12c.26-.38.57-.69.91-.93.34-.24.71-.41,1.11-.51s.81-.15,1.26-.15c.65,0,1.21.11,1.68.32.47.21.83.55,1.09,1.01s.39,1.08.39,1.86v6.04h-1.77v-5.74c0-.39-.05-.71-.14-.96-.09-.25-.23-.45-.42-.6s-.41-.25-.66-.3c-.25-.05-.52-.08-.81-.08-.45,0-.87.1-1.27.31-.4.21-.72.49-.96.87-.24.37-.36.81-.36,1.33v5.18h-1.77Z"></path><path class="cls-5" d="M244.55,81c-.45,0-.86-.08-1.25-.25-.39-.17-.7-.41-.93-.74-.23-.33-.34-.72-.34-1.19,0-.5.15-.92.44-1.24.29-.33.64-.57,1.05-.75-.3-.13-.53-.32-.69-.57-.16-.26-.24-.55-.24-.87,0-.41.15-.76.45-1.05.3-.29.67-.48,1.13-.57-.42-.24-.75-.56-.98-.95-.23-.39-.34-.83-.34-1.29,0-.59.15-1.11.45-1.55.3-.44.75-.78,1.37-1.01.62-.23,1.37-.35,2.26-.35.39,0,.75.02,1.09.07.34.05.65.12.93.22.45-.19.78-.44,1-.73s.36-.57.4-.85h1.71c-.01.35-.1.68-.26.99s-.38.56-.67.77c-.29.21-.63.35-1.03.42.3.25.52.55.68.89s.23.72.23,1.13c0,.58-.14,1.1-.43,1.54s-.72.79-1.3,1.02c-.58.23-1.32.35-2.21.35h-1.71c-.3,0-.54.06-.72.19s-.27.31-.27.55c0,.22.09.39.28.53.19.14.44.21.75.21h4.2c.73,0,1.31.23,1.75.68.43.45.65,1.03.65,1.74,0,.5-.13.96-.4,1.36-.27.41-.63.73-1.08.96-.45.23-.98.35-1.59.35h-4.39ZM245.03,79.69h3.88c.25,0,.47-.05.67-.15.19-.1.35-.23.47-.41.12-.18.18-.37.18-.57,0-.37-.11-.65-.33-.86s-.49-.31-.81-.31h-4.05c-.34,0-.63.11-.87.33s-.35.5-.35.84.11.62.34.82.52.31.87.31ZM246.95,73.14c.77,0,1.34-.14,1.73-.42.39-.28.58-.68.58-1.21s-.19-.93-.58-1.2-.97-.41-1.73-.41-1.36.14-1.75.41c-.39.27-.58.67-.58,1.2,0,.34.09.64.26.89.17.25.43.44.77.56s.78.18,1.3.18Z"></path><path class="cls-5" d="M256.68,77.82l5.04-11.76h2.38l5.06,11.76h-2.09l-1.15-2.73h-6.14l-1.13,2.73h-1.97ZM260.47,73.49h4.77l-1.42-3.45c-.06-.13-.12-.28-.2-.47-.07-.19-.15-.4-.24-.63-.09-.23-.17-.46-.25-.68s-.15-.4-.21-.55h-.12c-.08.24-.18.51-.29.81-.11.3-.23.58-.33.86-.11.27-.2.49-.27.65l-1.44,3.46Z"></path><path class="cls-5" d="M272.25,81c-.45,0-.86-.08-1.25-.25-.39-.17-.7-.41-.93-.74-.23-.33-.34-.72-.34-1.19,0-.5.15-.92.44-1.24.29-.33.64-.57,1.05-.75-.3-.13-.53-.32-.69-.57-.16-.26-.24-.55-.24-.87,0-.41.15-.76.45-1.05.3-.29.67-.48,1.13-.57-.42-.24-.75-.56-.98-.95-.23-.39-.34-.83-.34-1.29,0-.59.15-1.11.45-1.55.3-.44.75-.78,1.37-1.01.62-.23,1.37-.35,2.26-.35.39,0,.75.02,1.09.07.34.05.65.12.93.22.45-.19.78-.44,1-.73s.36-.57.4-.85h1.71c-.01.35-.1.68-.26.99s-.38.56-.67.77c-.29.21-.63.35-1.03.42.3.25.52.55.68.89s.23.72.23,1.13c0,.58-.14,1.1-.43,1.54s-.72.79-1.3,1.02c-.58.23-1.32.35-2.21.35h-1.71c-.3,0-.54.06-.72.19s-.27.31-.27.55c0,.22.09.39.28.53.19.14.44.21.75.21h4.2c.73,0,1.31.23,1.75.68.43.45.65,1.03.65,1.74,0,.5-.13.96-.4,1.36-.27.41-.63.73-1.08.96-.45.23-.98.35-1.59.35h-4.39ZM272.73,79.69h3.88c.25,0,.47-.05.67-.15.19-.1.35-.23.47-.41.12-.18.18-.37.18-.57,0-.37-.11-.65-.33-.86s-.49-.31-.81-.31h-4.05c-.34,0-.63.11-.87.33s-.35.5-.35.84.11.62.34.82.52.31.87.31ZM274.65,73.14c.77,0,1.34-.14,1.73-.42.39-.28.58-.68.58-1.21s-.19-.93-.58-1.2-.97-.41-1.73-.41-1.36.14-1.75.41c-.39.27-.58.67-.58,1.2,0,.34.09.64.26.89.17.25.43.44.77.56s.78.18,1.3.18Z"></path><path class="cls-5" d="M285.23,78.03c-.98,0-1.81-.17-2.49-.51s-1.19-.85-1.54-1.55c-.35-.7-.52-1.58-.52-2.66s.17-1.96.52-2.66c.35-.7.86-1.21,1.54-1.55.68-.34,1.52-.51,2.51-.51s1.75.17,2.39.5c.65.33,1.13.83,1.45,1.49.32.66.48,1.47.48,2.42v.75h-7.06c.02.66.14,1.21.35,1.64s.52.74.93.93c.41.19.91.29,1.5.29.35,0,.68-.05.98-.14.3-.09.56-.22.78-.39.22-.17.4-.37.52-.6s.19-.49.21-.76h1.75c0,.47-.09.91-.28,1.31-.19.41-.47.76-.84,1.05-.37.3-.82.53-1.35.69s-1.13.24-1.81.24ZM282.52,72.47h5.21c0-.43-.07-.81-.2-1.13-.13-.32-.31-.58-.54-.77-.23-.19-.49-.34-.79-.43-.3-.09-.63-.14-.99-.14-.54,0-1,.09-1.39.27-.39.18-.69.45-.91.81-.22.37-.35.83-.39,1.39Z"></path><path class="cls-5" d="M291.5,77.82v-9.02h1.46l.14,1.39h.12c.26-.38.57-.69.91-.93.34-.24.71-.41,1.11-.51s.81-.15,1.26-.15c.65,0,1.21.11,1.68.32.47.21.83.55,1.09,1.01s.39,1.08.39,1.86v6.04h-1.77v-5.74c0-.39-.05-.71-.14-.96-.09-.25-.23-.45-.42-.6s-.41-.25-.66-.3c-.25-.05-.52-.08-.81-.08-.45,0-.87.1-1.27.31-.4.21-.72.49-.96.87-.24.37-.36.81-.36,1.33v5.18h-1.77Z"></path><path class="cls-5" d="M305.94,78.03c-.97,0-1.79-.17-2.44-.51-.66-.34-1.15-.87-1.49-1.57-.34-.7-.51-1.58-.51-2.63s.17-1.93.51-2.63.84-1.23,1.5-1.57c.66-.34,1.49-.51,2.47-.51.64,0,1.21.08,1.71.23.5.15.92.39,1.28.69.35.31.62.69.8,1.13s.27.95.27,1.51h-1.77c0-.48-.09-.88-.28-1.19-.19-.31-.45-.55-.79-.7s-.75-.23-1.23-.23c-.56,0-1.03.11-1.42.33s-.69.55-.9,1.01c-.21.46-.32,1.05-.32,1.77v.33c0,.71.1,1.29.31,1.76s.51.8.92,1.02c.41.22.89.33,1.45.33.49,0,.91-.08,1.24-.24.34-.16.6-.4.79-.72s.28-.71.28-1.17h1.71c0,.54-.09,1.03-.27,1.47s-.44.83-.8,1.14-.78.55-1.28.72c-.5.17-1.08.25-1.74.25Z"></path><path class="cls-5" d="M312.9,81c-.33,0-.61-.02-.83-.06s-.39-.07-.49-.09v-1.25h.89c.35,0,.67-.06.95-.18.28-.12.53-.31.75-.57s.4-.6.55-1.01l-3.81-9.02h1.87l1.89,4.56c.09.21.19.46.31.77.11.31.23.63.34.96.11.33.22.62.31.86h.1c.03-.14.09-.32.15-.54s.14-.46.22-.71c.08-.25.17-.5.26-.74.09-.24.17-.45.22-.63l1.59-4.53h1.82l-3.28,8.64c-.21.53-.42,1.01-.65,1.45-.23.44-.49.82-.77,1.13-.29.31-.63.55-1.02.72s-.85.25-1.38.25Z"></path></g><g><path class="cls-4" d="M101.98,78.03c-1.31,0-2.43-.22-3.34-.67-.91-.45-1.61-1.12-2.07-2.01-.47-.9-.7-2.03-.7-3.4,0-2.01.53-3.53,1.6-4.55,1.07-1.02,2.57-1.53,4.52-1.53,1.1,0,2.07.17,2.91.5.85.33,1.51.83,2,1.5.49.67.73,1.51.73,2.53h-1.92c0-.65-.15-1.19-.46-1.63-.31-.43-.74-.75-1.3-.96-.56-.21-1.22-.31-1.97-.31-.86,0-1.59.15-2.21.46-.62.31-1.09.78-1.42,1.41-.33.63-.5,1.44-.5,2.41v.39c0,.96.17,1.75.5,2.37.33.62.81,1.09,1.43,1.4.62.31,1.37.46,2.24.46.77,0,1.43-.11,1.99-.32.56-.21,1-.53,1.31-.96.31-.43.47-.97.47-1.62h1.87c0,1.02-.24,1.86-.73,2.53-.49.67-1.16,1.17-2.01,1.5s-1.83.5-2.91.5Z"></path><path class="cls-4" d="M109.73,77.82v-9.02h1.46l.14,1.51h.12c.09-.27.23-.54.42-.81s.43-.48.72-.65c.29-.17.65-.26,1.09-.26.17,0,.34.01.51.03.17.02.3.06.4.1v1.61h-.74c-.41,0-.77.07-1.06.21-.3.14-.54.33-.73.58-.19.25-.33.54-.42.87-.09.33-.14.68-.14,1.05v4.77h-1.77Z"></path><path class="cls-4" d="M119.91,78.03c-.98,0-1.81-.17-2.49-.51-.68-.34-1.19-.85-1.54-1.55-.35-.7-.52-1.58-.52-2.66s.17-1.96.52-2.66.86-1.21,1.54-1.55c.68-.34,1.52-.51,2.51-.51s1.75.17,2.39.5c.65.33,1.13.83,1.45,1.49.32.66.48,1.47.48,2.42v.75h-7.06c.02.66.14,1.21.35,1.64.21.43.52.74.93.93.41.19.91.29,1.5.29.35,0,.68-.05.98-.14.3-.09.56-.22.78-.39.22-.17.4-.37.52-.6.13-.23.19-.49.21-.76h1.75c0,.47-.09.91-.28,1.31-.19.41-.47.76-.84,1.05-.37.3-.82.53-1.35.69-.53.16-1.13.24-1.81.24ZM117.2,72.47h5.21c0-.43-.07-.81-.2-1.13-.13-.32-.31-.58-.54-.77-.23-.19-.49-.34-.79-.43-.3-.09-.63-.14-.99-.14-.54,0-1,.09-1.39.27-.39.18-.69.45-.91.81-.22.37-.35.83-.39,1.39Z"></path><path class="cls-4" d="M128.83,78.03c-.38,0-.75-.04-1.11-.12-.37-.08-.7-.21-1.01-.39-.31-.18-.55-.44-.74-.77-.18-.33-.27-.74-.27-1.23,0-.66.16-1.2.49-1.61.33-.41.78-.72,1.37-.93.59-.21,1.29-.35,2.09-.42.81-.07,1.68-.1,2.61-.1v-.79c0-.38-.07-.68-.2-.92-.13-.23-.36-.42-.68-.55-.32-.13-.77-.2-1.34-.2-.53,0-.95.06-1.28.18s-.56.27-.7.45c-.14.18-.21.39-.21.62v.26h-1.71s-.02-.1-.03-.16c0-.06,0-.13,0-.2,0-.54.17-1,.5-1.38.33-.38.8-.67,1.4-.87.6-.19,1.32-.29,2.15-.29s1.55.11,2.13.32c.57.21,1,.53,1.29.95s.44.95.44,1.58v4.51c0,.22.05.38.15.48.1.1.25.15.43.15h.69v1.17c-.14.07-.32.13-.55.18-.23.05-.48.08-.75.08-.35,0-.64-.06-.85-.17-.21-.11-.38-.28-.5-.5s-.2-.46-.23-.74h-.12c-.25.3-.55.55-.9.77-.35.22-.74.38-1.17.49-.43.11-.89.16-1.38.16ZM129.26,76.59c.39,0,.76-.05,1.11-.16.35-.11.67-.26.95-.45.28-.19.51-.43.68-.72s.26-.6.26-.94v-.62c-1.01,0-1.86.05-2.57.14-.71.09-1.25.26-1.63.51-.38.25-.57.6-.57,1.05,0,.27.08.5.24.69.16.18.37.31.63.39.26.08.56.12.89.12Z"></path><path class="cls-4" d="M139.08,78.03c-.51,0-.93-.09-1.23-.27s-.53-.44-.68-.77c-.14-.33-.21-.71-.21-1.15v-5.59h-1.3v-1.44h1.35l.36-2.55h1.35v2.55h1.9v1.44h-1.9v5.37c0,.33.06.58.18.74.12.16.36.24.71.24h1.01v1.17c-.13.06-.28.1-.46.14-.18.03-.37.07-.56.09-.19.03-.36.04-.52.04Z"></path><path class="cls-4" d="M142.36,67.19v-1.77h1.77v1.77h-1.77ZM142.36,77.82v-9.02h1.77v9.02h-1.77Z"></path><path class="cls-4" d="M149.11,77.82l-3.64-9.02h1.87l1.77,4.44c.08.21.17.47.28.78.11.31.22.63.33.96.11.33.21.62.3.88h.09c.08-.24.17-.52.28-.85.11-.33.22-.65.33-.97.11-.32.2-.59.28-.81l1.75-4.44h1.82l-3.67,9.02h-1.78Z"></path><path class="cls-4" d="M160,78.03c-.98,0-1.81-.17-2.49-.51s-1.19-.85-1.54-1.55c-.35-.7-.52-1.58-.52-2.66s.17-1.96.52-2.66c.35-.7.86-1.21,1.54-1.55.68-.34,1.52-.51,2.51-.51s1.75.17,2.39.5c.65.33,1.13.83,1.45,1.49.32.66.48,1.47.48,2.42v.75h-7.06c.02.66.14,1.21.35,1.64s.52.74.93.93c.41.19.91.29,1.5.29.35,0,.68-.05.98-.14.3-.09.56-.22.78-.39.22-.17.4-.37.52-.6s.19-.49.21-.76h1.75c0,.47-.09.91-.28,1.31-.19.41-.47.76-.84,1.05-.37.3-.82.53-1.35.69s-1.13.24-1.81.24ZM157.29,72.47h5.21c0-.43-.07-.81-.2-1.13-.13-.32-.31-.58-.54-.77-.23-.19-.49-.34-.79-.43-.3-.09-.63-.14-.99-.14-.54,0-1,.09-1.39.27-.39.18-.69.45-.91.81-.22.37-.35.83-.39,1.39Z"></path><path class="cls-4" d="M170.86,77.82v-11.76h2.97l2.67,7.17c.08.21.16.44.25.71.09.27.17.53.27.79s.16.49.21.69h.14c.05-.19.11-.42.18-.68.07-.26.15-.52.23-.78.08-.26.16-.51.24-.74l2.69-7.17h2.93v11.76h-1.9v-6.86c0-.34,0-.71.02-1.1s.02-.75.03-1.07.01-.56.03-.71h-.14c-.05.15-.11.36-.2.63-.09.27-.18.55-.27.84-.1.29-.18.55-.25.78l-2.85,7.49h-1.75l-2.86-7.48c-.08-.23-.16-.48-.25-.75s-.17-.53-.25-.8c-.08-.26-.15-.5-.22-.72h-.12c.01.23.02.52.03.87,0,.35.01.7.02,1.05,0,.35,0,.67,0,.97v6.86h-1.83Z"></path><path class="cls-4" d="M189,78.03c-.38,0-.75-.04-1.11-.12s-.7-.21-1.01-.39-.55-.44-.74-.77c-.18-.33-.27-.74-.27-1.23,0-.66.16-1.2.49-1.61.33-.41.78-.72,1.37-.93.59-.21,1.29-.35,2.09-.42s1.68-.1,2.61-.1v-.79c0-.38-.07-.68-.2-.92-.13-.23-.36-.42-.68-.55-.32-.13-.77-.2-1.34-.2-.53,0-.95.06-1.28.18s-.56.27-.7.45c-.14.18-.21.39-.21.62v.26h-1.71s-.02-.1-.03-.16c0-.06,0-.13,0-.2,0-.54.17-1,.5-1.38.33-.38.8-.67,1.4-.87.6-.19,1.32-.29,2.15-.29s1.55.11,2.13.32c.57.21,1,.53,1.29.95s.44.95.44,1.58v4.51c0,.22.05.38.15.48s.25.15.43.15h.69v1.17c-.14.07-.32.13-.55.18s-.48.08-.75.08c-.35,0-.64-.06-.85-.17-.21-.11-.38-.28-.5-.5s-.2-.46-.23-.74h-.12c-.25.3-.55.55-.9.77-.35.22-.74.38-1.17.49-.43.11-.89.16-1.38.16ZM189.43,76.59c.39,0,.76-.05,1.11-.16.35-.11.67-.26.95-.45.28-.19.51-.43.68-.72s.26-.6.26-.94v-.62c-1.01,0-1.86.05-2.57.14-.71.09-1.25.26-1.63.51-.38.25-.57.6-.57,1.05,0,.27.08.5.24.69.16.18.37.31.63.39.26.08.56.12.89.12Z"></path><path class="cls-4" d="M196.7,77.82v-9.02h1.46l.14,1.51h.12c.09-.27.23-.54.42-.81s.43-.48.72-.65.65-.26,1.09-.26c.17,0,.34.01.51.03.17.02.3.06.4.1v1.61h-.74c-.41,0-.77.07-1.06.21-.3.14-.54.33-.73.58-.19.25-.33.54-.42.87-.09.33-.14.68-.14,1.05v4.77h-1.77Z"></path><path class="cls-4" d="M202.95,77.82v-12.4h1.77v7.65l4.13-4.27h2.13l-3.33,3.5,3.48,5.52h-2.06l-2.64-4.29-1.71,1.56v2.73h-1.77Z"></path><path class="cls-4" d="M216.19,78.03c-.98,0-1.81-.17-2.49-.51-.68-.34-1.19-.85-1.54-1.55-.35-.7-.52-1.58-.52-2.66s.17-1.96.52-2.66c.35-.7.86-1.21,1.54-1.55.68-.34,1.52-.51,2.51-.51s1.75.17,2.39.5c.65.33,1.13.83,1.45,1.49.32.66.48,1.47.48,2.42v.75h-7.06c.02.66.14,1.21.35,1.64.21.43.52.74.93.93.41.19.91.29,1.5.29.35,0,.68-.05.98-.14.3-.09.56-.22.78-.39.22-.17.4-.37.52-.6.13-.23.19-.49.21-.76h1.75c0,.47-.09.91-.28,1.31-.19.41-.47.76-.84,1.05s-.82.53-1.35.69c-.53.16-1.13.24-1.81.24ZM213.48,72.47h5.21c0-.43-.07-.81-.2-1.13-.13-.32-.31-.58-.54-.77-.23-.19-.49-.34-.79-.43s-.63-.14-.99-.14c-.54,0-1,.09-1.39.27s-.69.45-.91.81c-.22.37-.35.83-.39,1.39Z"></path><path class="cls-4" d="M225.02,78.03c-.51,0-.93-.09-1.23-.27s-.53-.44-.68-.77-.21-.71-.21-1.15v-5.59h-1.3v-1.44h1.35l.36-2.55h1.35v2.55h1.9v1.44h-1.9v5.37c0,.33.06.58.18.74.12.16.36.24.71.24h1.01v1.17c-.13.06-.28.1-.46.14-.18.03-.37.07-.56.09-.19.03-.36.04-.52.04Z"></path><path class="cls-4" d="M228.3,67.19v-1.77h1.77v1.77h-1.77ZM228.3,77.82v-9.02h1.77v9.02h-1.77Z"></path><path class="cls-4" d="M232.45,77.82v-9.02h1.46l.14,1.39h.12c.26-.38.57-.69.91-.93.34-.24.71-.41,1.11-.51s.81-.15,1.26-.15c.65,0,1.21.11,1.68.32.47.21.83.55,1.09,1.01s.39,1.08.39,1.86v6.04h-1.77v-5.74c0-.39-.05-.71-.14-.96-.09-.25-.23-.45-.42-.6s-.41-.25-.66-.3c-.25-.05-.52-.08-.81-.08-.45,0-.87.1-1.27.31-.4.21-.72.49-.96.87-.24.37-.36.81-.36,1.33v5.18h-1.77Z"></path><path class="cls-4" d="M244.55,81c-.45,0-.86-.08-1.25-.25-.39-.17-.7-.41-.93-.74-.23-.33-.34-.72-.34-1.19,0-.5.15-.92.44-1.24.29-.33.64-.57,1.05-.75-.3-.13-.53-.32-.69-.57-.16-.26-.24-.55-.24-.87,0-.41.15-.76.45-1.05.3-.29.67-.48,1.13-.57-.42-.24-.75-.56-.98-.95-.23-.39-.34-.83-.34-1.29,0-.59.15-1.11.45-1.55.3-.44.75-.78,1.37-1.01.62-.23,1.37-.35,2.26-.35.39,0,.75.02,1.09.07.34.05.65.12.93.22.45-.19.78-.44,1-.73s.36-.57.4-.85h1.71c-.01.35-.1.68-.26.99s-.38.56-.67.77c-.29.21-.63.35-1.03.42.3.25.52.55.68.89s.23.72.23,1.13c0,.58-.14,1.1-.43,1.54s-.72.79-1.3,1.02c-.58.23-1.32.35-2.21.35h-1.71c-.3,0-.54.06-.72.19s-.27.31-.27.55c0,.22.09.39.28.53.19.14.44.21.75.21h4.2c.73,0,1.31.23,1.75.68.43.45.65,1.03.65,1.74,0,.5-.13.96-.4,1.36-.27.41-.63.73-1.08.96-.45.23-.98.35-1.59.35h-4.39ZM245.03,79.69h3.88c.25,0,.47-.05.67-.15.19-.1.35-.23.47-.41.12-.18.18-.37.18-.57,0-.37-.11-.65-.33-.86s-.49-.31-.81-.31h-4.05c-.34,0-.63.11-.87.33s-.35.5-.35.84.11.62.34.82.52.31.87.31ZM246.95,73.14c.77,0,1.34-.14,1.73-.42.39-.28.58-.68.58-1.21s-.19-.93-.58-1.2-.97-.41-1.73-.41-1.36.14-1.75.41c-.39.27-.58.67-.58,1.2,0,.34.09.64.26.89.17.25.43.44.77.56s.78.18,1.3.18Z"></path><path class="cls-4" d="M256.68,77.82l5.04-11.76h2.38l5.06,11.76h-2.09l-1.15-2.73h-6.14l-1.13,2.73h-1.97ZM260.47,73.49h4.77l-1.42-3.45c-.06-.13-.12-.28-.2-.47-.07-.19-.15-.4-.24-.63-.09-.23-.17-.46-.25-.68s-.15-.4-.21-.55h-.12c-.08.24-.18.51-.29.81-.11.3-.23.58-.33.86-.11.27-.2.49-.27.65l-1.44,3.46Z"></path><path class="cls-4" d="M272.25,81c-.45,0-.86-.08-1.25-.25-.39-.17-.7-.41-.93-.74-.23-.33-.34-.72-.34-1.19,0-.5.15-.92.44-1.24.29-.33.64-.57,1.05-.75-.3-.13-.53-.32-.69-.57-.16-.26-.24-.55-.24-.87,0-.41.15-.76.45-1.05.3-.29.67-.48,1.13-.57-.42-.24-.75-.56-.98-.95-.23-.39-.34-.83-.34-1.29,0-.59.15-1.11.45-1.55.3-.44.75-.78,1.37-1.01.62-.23,1.37-.35,2.26-.35.39,0,.75.02,1.09.07.34.05.65.12.93.22.45-.19.78-.44,1-.73s.36-.57.4-.85h1.71c-.01.35-.1.68-.26.99s-.38.56-.67.77c-.29.21-.63.35-1.03.42.3.25.52.55.68.89s.23.72.23,1.13c0,.58-.14,1.1-.43,1.54s-.72.79-1.3,1.02c-.58.23-1.32.35-2.21.35h-1.71c-.3,0-.54.06-.72.19s-.27.31-.27.55c0,.22.09.39.28.53.19.14.44.21.75.21h4.2c.73,0,1.31.23,1.75.68.43.45.65,1.03.65,1.74,0,.5-.13.96-.4,1.36-.27.41-.63.73-1.08.96-.45.23-.98.35-1.59.35h-4.39ZM272.73,79.69h3.88c.25,0,.47-.05.67-.15.19-.1.35-.23.47-.41.12-.18.18-.37.18-.57,0-.37-.11-.65-.33-.86s-.49-.31-.81-.31h-4.05c-.34,0-.63.11-.87.33s-.35.5-.35.84.11.62.34.82.52.31.87.31ZM274.65,73.14c.77,0,1.34-.14,1.73-.42.39-.28.58-.68.58-1.21s-.19-.93-.58-1.2-.97-.41-1.73-.41-1.36.14-1.75.41c-.39.27-.58.67-.58,1.2,0,.34.09.64.26.89.17.25.43.44.77.56s.78.18,1.3.18Z"></path><path class="cls-4" d="M285.23,78.03c-.98,0-1.81-.17-2.49-.51s-1.19-.85-1.54-1.55c-.35-.7-.52-1.58-.52-2.66s.17-1.96.52-2.66c.35-.7.86-1.21,1.54-1.55.68-.34,1.52-.51,2.51-.51s1.75.17,2.39.5c.65.33,1.13.83,1.45,1.49.32.66.48,1.47.48,2.42v.75h-7.06c.02.66.14,1.21.35,1.64s.52.74.93.93c.41.19.91.29,1.5.29.35,0,.68-.05.98-.14.3-.09.56-.22.78-.39.22-.17.4-.37.52-.6s.19-.49.21-.76h1.75c0,.47-.09.91-.28,1.31-.19.41-.47.76-.84,1.05-.37.3-.82.53-1.35.69s-1.13.24-1.81.24ZM282.52,72.47h5.21c0-.43-.07-.81-.2-1.13-.13-.32-.31-.58-.54-.77-.23-.19-.49-.34-.79-.43-.3-.09-.63-.14-.99-.14-.54,0-1,.09-1.39.27-.39.18-.69.45-.91.81-.22.37-.35.83-.39,1.39Z"></path><path class="cls-4" d="M291.5,77.82v-9.02h1.46l.14,1.39h.12c.26-.38.57-.69.91-.93.34-.24.71-.41,1.11-.51s.81-.15,1.26-.15c.65,0,1.21.11,1.68.32.47.21.83.55,1.09,1.01s.39,1.08.39,1.86v6.04h-1.77v-5.74c0-.39-.05-.71-.14-.96-.09-.25-.23-.45-.42-.6s-.41-.25-.66-.3c-.25-.05-.52-.08-.81-.08-.45,0-.87.1-1.27.31-.4.21-.72.49-.96.87-.24.37-.36.81-.36,1.33v5.18h-1.77Z"></path><path class="cls-4" d="M305.94,78.03c-.97,0-1.79-.17-2.44-.51-.66-.34-1.15-.87-1.49-1.57-.34-.7-.51-1.58-.51-2.63s.17-1.93.51-2.63.84-1.23,1.5-1.57c.66-.34,1.49-.51,2.47-.51.64,0,1.21.08,1.71.23.5.15.92.39,1.28.69.35.31.62.69.8,1.13s.27.95.27,1.51h-1.77c0-.48-.09-.88-.28-1.19-.19-.31-.45-.55-.79-.7s-.75-.23-1.23-.23c-.56,0-1.03.11-1.42.33s-.69.55-.9,1.01c-.21.46-.32,1.05-.32,1.77v.33c0,.71.1,1.29.31,1.76s.51.8.92,1.02c.41.22.89.33,1.45.33.49,0,.91-.08,1.24-.24.34-.16.6-.4.79-.72s.28-.71.28-1.17h1.71c0,.54-.09,1.03-.27,1.47s-.44.83-.8,1.14-.78.55-1.28.72c-.5.17-1.08.25-1.74.25Z"></path><path class="cls-4" d="M312.9,81c-.33,0-.61-.02-.83-.06s-.39-.07-.49-.09v-1.25h.89c.35,0,.67-.06.95-.18.28-.12.53-.31.75-.57s.4-.6.55-1.01l-3.81-9.02h1.87l1.89,4.56c.09.21.19.46.31.77.11.31.23.63.34.96.11.33.22.62.31.86h.1c.03-.14.09-.32.15-.54s.14-.46.22-.71c.08-.25.17-.5.26-.74.09-.24.17-.45.22-.63l1.59-4.53h1.82l-3.28,8.64c-.21.53-.42,1.01-.65,1.45-.23.44-.49.82-.77,1.13-.29.31-.63.55-1.02.72s-.85.25-1.38.25Z"></path></g></g></g><path class="cls-4" d="M14.2,4.7C6.36,4.7,0,11.06,0,18.9v50.45c1.98-.79,4.07-.77,5.92-.08V18.9c0-4.57,3.71-8.28,8.28-8.28h10.35l1.2-5.92h-11.55ZM76.18,32.25v40.35c0,4.56-3.71,8.28-8.28,8.28H30.9c-.39.67-.81,1.34-1.26,1.99-1.02,1.48-2.15,2.79-3.36,3.93h41.63c7.84,0,14.2-6.36,14.2-14.2V27.08c-2.11,1.56-4.08,3.3-5.92,5.17ZM73.88,13.18c1.74-1.09,3.51-2.07,5.29-2.92-2.59-3.38-6.68-5.56-11.27-5.56h-23.33c-.14.98-.48,1.94-1.01,2.8l-1.96,3.13h26.3c2.35,0,4.47.98,5.98,2.56Z"></path><g><path class="cls-2" d="M31.35,65.5c2.61-9.11,4.22-18.5,4.73-27.95l-7.74-7.54c.28,8.18-.31,16.41-1.77,24.47-.26,1.37-.62,3.26-.93,4.6-.7,3.02-1.43,6.23-2.37,9.26l5.42,5.28c1.09-2.67,1.92-5.44,2.66-8.12Z"></path><path class="cls-2" d="M46.71,53.94c.11-1.88.25-3.75.42-5.62l-8.15-7.94c-.24,2.18-.44,4.37-.59,6.55-.37,5.24-.48,10.51-.36,15.76.02.67.05,1.25.17,1.97,1.15,6.76,9.22,7.34,11.84,1.19.71-1.49,1.01-2.78,1.63-4.17.66-1.42,1.87-4.06,2.52-5.47.11-.23.23-.46.34-.69l-5.7-5.55c-.74,1.33-1.45,2.66-2.13,3.96Z"></path><path class="cls-3" d="M48.84,49.98l5.7,5.55c4.59-9.31,10.11-18.79,17.37-26.35l-4.46-4.34c-7.56,7.23-13.75,16.38-18.61,25.14Z"></path><path class="cls-3" d="M49,34.08c.79-6.04-7.79-7.46-8.98-1.48-.4,2.59-.75,5.18-1.04,7.79l8.15,7.94c.43-4.77,1.05-9.53,1.87-14.25Z"></path><path class="cls-3" d="M36.15,26.03c-.46-5.38-8.12-4.92-7.99.43.08,1.18.14,2.37.18,3.55l7.74,7.54c.21-3.83.23-7.68.07-11.52Z"></path><path class="cls-3" d="M34.38.17c-1.14-.51-2.46.16-2.71,1.39l-2.4,11.91c-.17.84.23,1.69.98,2.1.9.49,2.03.19,2.57-.68l6.33-10.13c.62-1,.22-2.32-.85-2.81l-3.93-1.77Z"></path><path class="cls-1" d="M89.51,12.07c-8.35,1.97-15.69,6.68-22.06,12.77l4.46,4.34c5.12-5.33,11.11-9.71,18.24-12.4l.37-.14.09-.04s.06-.02-.03,0c-.07.02-.02,0-.04,0,.27-.1.71-.14.93-.13.22.01.35,0,.53.1.58.34.87,1.28,1.06,2.06.1.45.41.84.87.98.68.22,1.4-.16,1.62-.83.33-1.02.43-2.26.1-3.37-.67-2.6-3.65-3.85-6.14-3.36Z"></path><path class="cls-1" d="M23.27,68.34c-.44,1.41-.92,2.79-1.48,4.09-1.3,2.93-2.88,5.98-5.83,7.39-2.67,1.15-5.83.55-8.02-1.33-.91-.77-1.66-1.73-2.15-2.79-.7-1.49-2.45-2.16-3.97-1.5-1.54.67-2.25,2.46-1.58,4,.83,1.91,2.08,3.6,3.61,4.96,3.85,3.52,9.8,4.66,14.64,2.64,2.87-1.17,5.15-3.4,6.86-5.87,1.35-1.97,2.43-4.11,3.33-6.31l-5.42-5.28Z"></path></g></g></g></svg>