<?xml version="1.0" encoding="UTF-8"?>
<svg xmlns="http://www.w3.org/2000/svg" id="Layer_1" data-name="Layer 1" version="1.1" viewBox="0 0 512 512">
  <defs>
    <style>
      .cls-1 {
        fill: #747371;
        stroke-width: 0px;
      }
    </style>
  </defs>
  <path class="cls-1" d="M256,0C114.6,0,0,114.6,0,256s114.6,256,256,256,256-114.6,256-256S397.4,0,256,0ZM181.6,387h-62.3v-187.6h62.3v187.6ZM150.4,173.8h-.4c-20.9,0-34.5-14.4-34.5-32.4s13.9-32.4,35.3-32.4,34.5,14,34.9,32.4c0,18-13.5,32.4-35.3,32.4ZM406.4,387h-62.3v-100.3c0-25.2-9-42.4-31.6-42.4s-27.5,11.6-32,22.8c-1.6,4-2.1,9.6-2.1,15.2v104.8h-62.3s.8-170,0-187.6h62.3v26.6c8.3-12.8,23.1-31,56.2-31s71.8,26.8,71.8,84.4v107.6Z"></path>
</svg>
