<?xml version="1.0" encoding="UTF-8"?>
<svg xmlns="http://www.w3.org/2000/svg" id="Layer_1" data-name="Layer 1" version="1.1" viewBox="0 0 512 512">
  <defs>
    <style>
      .cls-1 {
        fill: #747371;
        fill-rule: evenodd;
        stroke-width: 0px;
      }
    </style>
  </defs>
  <path class="cls-1" d="M256,0c141.4,0,256,114.6,256,256s-114.6,256-256,256S0,397.4,0,256,114.6,0,256,0ZM418.5,355.2v-190.3l-95.1,95.1,95.1,95.1ZM113.8,359.1h284.4l-86.9-86.9-33.1,33.1c-1.6,1.6-3.8,2.5-6,2.5h-32.2c-2.3,0-4.4-.9-6.1-2.5l-33.1-33.1-86.9,86.9h0ZM93.5,165v190.3l95.1-95.1-95.1-95.1ZM406.4,152.9H105.6l137.8,137.8h25.1l137.8-137.8Z"></path>
</svg>
